<svg width="47" height="46" viewBox="0 0 47 46" fill="none" xmlns="http://www.w3.org/2000/svg">
<g clip-path="url(#clip0_53_147)">
<rect width="40" height="39.2532" rx="19.6266" transform="matrix(0.985392 0.170301 -0.177057 0.984201 7.21533 0)" fill="#FA586A"/>
<mask id="mask0_53_147" style="mask-type:luminance" maskUnits="userSpaceOnUse" x="0" y="0" width="47" height="46">
<path d="M6.86122 1.9684C7.05679 0.881286 8.09768 0.152493 9.18612 0.340602L44.6602 6.47145C45.7487 6.65956 46.4725 7.69333 46.2769 8.78045L40.0351 43.4767C39.8395 44.5638 38.7986 45.2926 37.7102 45.1045L2.23607 38.9736C1.14763 38.7855 0.423826 37.7518 0.619398 36.6646L6.86122 1.9684Z" fill="white"/>
</mask>
<g mask="url(#mask0_53_147)">
<path fill-rule="evenodd" clip-rule="evenodd" d="M36.7261 42.9693C38.1588 42.2343 39.28 41.0471 39.8325 40.16C40.9397 38.373 41.3443 36.1989 41.5922 34.821L44.7198 17.4361C44.9653 16.0711 45.3592 13.8819 44.9292 11.8292C44.7196 10.8104 44.0694 9.30379 42.9904 8.148C42.2828 7.36394 41.4282 6.72039 40.473 6.25234C39.2634 5.67151 37.7362 5.2748 35.7917 4.93873L18.0546 1.87331C16.1101 1.53725 14.5366 1.39809 13.1973 1.53841C12.1372 1.66191 11.1103 1.97992 10.1702 2.47584C8.73751 3.2108 7.61629 4.39794 7.06383 5.28504C5.95661 7.07212 5.55195 9.24618 5.30407 10.6241L2.17655 28.009C1.92866 29.3869 1.55028 31.5655 1.96713 33.6159C2.17672 34.6347 2.82689 36.1413 3.90593 37.2971C4.52894 37.9757 5.30341 38.6407 6.42333 39.1927C7.63291 39.7736 9.16009 40.1703 11.1046 40.5064L28.8417 43.5718C30.7862 43.9078 32.3705 44.0622 33.699 43.9067C34.7591 43.7832 35.786 43.4652 36.7261 42.9693ZM32.8716 10.6847C32.9772 10.6814 33.8477 10.6808 33.9447 10.6876C34.5865 10.7438 34.8663 11.212 34.7476 11.872L31.4785 30.044C31.3907 30.5318 31.3065 30.972 31.1133 31.4432C30.9316 31.9006 30.6561 32.3168 30.3041 32.666C29.9495 33.014 29.5228 33.2832 29.0528 33.4555C28.5869 33.6202 28.0956 33.7054 27.6003 33.7074C26.6619 33.7278 26.0336 33.6624 25.4728 33.4476C24.9614 33.2515 24.5147 32.9217 24.1812 32.4941C23.714 31.9022 23.4832 31.1636 23.5321 30.4168C23.5674 29.9746 23.6988 29.545 23.9176 29.1568C24.1364 28.7686 24.4375 28.4309 24.8006 28.1663C25.1841 27.889 25.6386 27.697 26.2196 27.5833C26.8282 27.4661 27.4791 27.4441 28.4789 27.4211L29.2682 27.4014C29.6167 27.3936 29.9176 27.3593 30.1989 27.1225C30.4803 26.8856 30.5466 26.5452 30.6071 26.2088L32.1336 17.724C32.2505 17.0737 31.9835 16.8449 31.3314 16.8551C30.8784 16.8634 21.4762 17.0893 20.8383 17.1046C20.8143 17.1052 20.7921 17.1061 20.7681 17.1078C20.2247 17.1461 20.0077 17.2979 19.8907 17.9484L17.6545 30.3786C17.5668 30.8663 17.4625 31.3047 17.2677 31.7756C17.0858 32.2325 16.8105 32.6481 16.4587 32.9968C16.1047 33.3447 15.6786 33.6141 15.2091 33.7867C14.7432 33.9536 14.2515 34.041 13.7555 34.045C12.8165 34.0686 12.1887 33.9999 11.6279 33.7852C11.1162 33.5876 10.6698 33.2561 10.3372 32.8268C9.87637 32.2342 9.65357 31.4964 9.71114 30.7535C9.73981 30.3117 9.86603 29.8813 10.0811 29.492C10.2961 29.1028 10.5949 28.764 10.9566 28.499C11.3404 28.2201 11.7949 28.0281 12.3759 27.9144C12.9846 27.7972 13.6351 27.7768 14.6352 27.7522L15.4242 27.7342C15.7714 27.7245 16.0739 27.6904 16.3552 27.4536C16.635 27.2164 16.7214 26.8961 16.7816 26.5613L19.3598 12.23C19.3945 12.0369 19.4344 11.9093 19.4559 11.8466C19.5397 11.5648 19.728 11.3238 19.9838 11.1711C20.2245 11.0437 20.4934 10.9764 20.7669 10.9749C20.7685 10.9749 20.7701 10.975 20.7716 10.9753C20.7733 10.9756 20.7751 10.9757 20.7768 10.9757L32.8716 10.6847Z" fill="url(#paint0_linear_53_147)"/>
</g>
</g>
<defs>
<linearGradient id="paint0_linear_53_147" x1="20.0001" y1="41.8894" x2="26.5149" y2="4.19355" gradientUnits="userSpaceOnUse">
<stop stop-color="white"/>
<stop offset="1" stop-color="white"/>
</linearGradient>
<clipPath id="clip0_53_147">
<rect width="40" height="39.2532" rx="19.6266" transform="matrix(0.985392 0.170301 -0.177057 0.984201 7.21533 0)" fill="white"/>
</clipPath>
</defs>
</svg>
