<svg width="49" height="48" viewBox="0 0 49 48" fill="none" xmlns="http://www.w3.org/2000/svg">
<g clip-path="url(#clip0_53_118)">
<path d="M44.0757 19.2913C41.5885 8.73199 30.8387 2.1481 20.0654 4.58592C9.29216 7.02373 2.5749 17.5602 5.0621 28.1195C7.30991 37.6625 16.3065 43.9583 25.9698 43.2823L22.8228 29.9218L17.8699 31.0426L16.5681 25.5159L21.521 24.3951L20.5288 20.1828C19.4001 15.391 21.689 12.0852 26.1447 11.0769C28.2789 10.594 30.5992 10.4623 30.5992 10.4623L31.7075 15.1674L29.2478 15.724C26.8245 16.2724 26.4159 17.9172 26.7721 19.4293L27.6169 23.0157L33.0269 21.7915L33.4639 27.5139L28.9186 28.5424L32.0656 41.9029C41.0533 38.3585 46.3236 28.8345 44.0757 19.2913Z" fill="#1877F2"/>
<path d="M33.4639 27.5137L33.0269 21.7913L27.6168 23.0155L26.7721 19.4291C26.4159 17.9169 26.8245 16.2722 29.2478 15.7238L31.7074 15.1673L30.5992 10.4621C30.5992 10.4621 28.2789 10.5938 26.1446 11.0767C21.6889 12.085 19.4001 15.3908 20.5288 20.1827L21.521 24.3949L16.5681 25.5157L17.8698 31.0424L22.8227 29.9217L25.9697 43.2821C27.0145 43.2088 28.0519 43.0559 29.0724 42.8247C30.093 42.594 31.0938 42.2858 32.0656 41.9027L28.9186 28.5423L33.4639 27.5137Z" fill="white"/>
</g>
<defs>
<clipPath id="clip0_53_118">
<rect width="40" height="39.2854" fill="white" transform="matrix(0.975341 -0.220704 0.229271 0.973363 0.558594 9)"/>
</clipPath>
</defs>
</svg>
