<svg width="100" height="100" viewBox="0 0 100 100" fill="none" xmlns="http://www.w3.org/2000/svg">
<g opacity="0.5">
<path d="M29.5674 56.02V46.44C29.5674 45.72 29.7274 45.2 30.0474 44.88C30.3808 44.56 30.8741 44.4 31.5274 44.4H33.6874V45.98H31.6074V56.02H29.5674ZM28.4474 49.22V47.78H33.6274V49.22H28.4474ZM34.6091 56V47.78H36.3491L36.6891 49.56H36.7291C36.7425 49.52 36.7891 49.4133 36.8691 49.24C36.9625 49.0533 37.1091 48.8467 37.3091 48.62C37.5225 48.3933 37.8025 48.2 38.1491 48.04C38.5091 47.8667 38.9558 47.78 39.4891 47.78C40.0758 47.78 40.5491 47.88 40.9091 48.08C41.2825 48.2667 41.5758 48.52 41.7891 48.84C42.0025 49.1467 42.1491 49.4933 42.2291 49.88C42.3225 50.2533 42.3758 50.6267 42.3891 51C42.4158 51.3733 42.4291 51.7133 42.4291 52.02V56H40.4291V52C40.4291 51.56 40.3825 51.16 40.2891 50.8C40.2091 50.44 40.0425 50.1467 39.7891 49.92C39.5491 49.6933 39.1691 49.58 38.6491 49.58C38.1158 49.58 37.7091 49.7067 37.4291 49.96C37.1491 50.2 36.9558 50.5067 36.8491 50.88C36.7425 51.2533 36.6891 51.6533 36.6891 52.08V56H34.6091ZM47.4255 56.2C46.6122 56.2 45.9522 56.0267 45.4455 55.68C44.9522 55.3333 44.5922 54.8467 44.3655 54.22C44.1389 53.5933 44.0255 52.8667 44.0255 52.04C44.0255 51.1733 44.1389 50.4267 44.3655 49.8C44.6055 49.16 44.9722 48.6667 45.4655 48.32C45.9722 47.96 46.6255 47.78 47.4255 47.78C47.9455 47.78 48.3789 47.8667 48.7255 48.04C49.0855 48.2 49.3655 48.3933 49.5655 48.62C49.7789 48.8467 49.9322 49.0533 50.0255 49.24C50.1189 49.4267 50.1722 49.54 50.1855 49.58H50.2255V44.74H52.3255V56H50.5655L50.2255 54.54H50.1855C50.1722 54.5667 50.1122 54.6667 50.0055 54.84C49.9122 55.0133 49.7522 55.2067 49.5255 55.42C49.3122 55.6333 49.0322 55.82 48.6855 55.98C48.3389 56.1267 47.9189 56.2 47.4255 56.2ZM48.0855 54.48C48.5922 54.48 48.9989 54.3733 49.3055 54.16C49.6255 53.9467 49.8522 53.66 49.9855 53.3C50.1322 52.9267 50.2055 52.5 50.2055 52.02C50.2055 51.5533 50.1389 51.14 50.0055 50.78C49.8722 50.4067 49.6522 50.12 49.3455 49.92C49.0522 49.7067 48.6522 49.6 48.1455 49.6C47.5989 49.6 47.1655 49.7133 46.8455 49.94C46.5389 50.1667 46.3255 50.4667 46.2055 50.84C46.0855 51.2133 46.0255 51.6067 46.0255 52.02C46.0255 52.4333 46.0789 52.8333 46.1855 53.22C46.3055 53.5933 46.5122 53.9 46.8055 54.14C47.1122 54.3667 47.5389 54.48 48.0855 54.48ZM56.7232 56C56.0699 56 55.5765 55.84 55.2432 55.52C54.9232 55.2 54.7632 54.68 54.7632 53.96V49H56.6632V54.4H58.5832V56H56.7232ZM53.5232 49.22V47.78C53.8165 47.78 54.0565 47.76 54.2432 47.72C54.4299 47.68 54.5765 47.5933 54.6832 47.46C54.8032 47.3267 54.8899 47.12 54.9432 46.84C54.9965 46.56 55.0232 46.1733 55.0232 45.68H56.6632V47.78H58.5432V49.22H53.5232ZM60.117 56V47.78H61.857L62.197 49.56H62.237C62.2503 49.52 62.297 49.4133 62.377 49.24C62.4703 49.0533 62.617 48.8467 62.817 48.62C63.0303 48.3933 63.3103 48.2 63.657 48.04C64.017 47.8667 64.4636 47.78 64.997 47.78C65.5836 47.78 66.057 47.88 66.417 48.08C66.7903 48.2667 67.0836 48.52 67.297 48.84C67.5103 49.1467 67.657 49.4933 67.737 49.88C67.8303 50.2533 67.8836 50.6267 67.897 51C67.9236 51.3733 67.937 51.7133 67.937 52.02V56H65.937V52C65.937 51.56 65.8903 51.16 65.797 50.8C65.717 50.44 65.5503 50.1467 65.297 49.92C65.057 49.6933 64.677 49.58 64.157 49.58C63.6236 49.58 63.217 49.7067 62.937 49.96C62.657 50.2 62.4636 50.5067 62.357 50.88C62.2503 51.2533 62.197 51.6533 62.197 52.08V56H60.117ZM70.6134 56C70.1334 56 69.8067 55.88 69.6334 55.64C69.4734 55.4 69.3934 55.1067 69.3934 54.76C69.3934 54.44 69.4734 54.16 69.6334 53.92C69.8067 53.68 70.1334 53.56 70.6134 53.56C71.0667 53.56 71.3734 53.68 71.5334 53.92C71.7067 54.16 71.7934 54.44 71.7934 54.76C71.7934 55.1067 71.7067 55.4 71.5334 55.64C71.3734 55.88 71.0667 56 70.6134 56Z" fill="white"/>
</g>
</svg>
