<svg width="50" height="49" viewBox="0 0 50 49" fill="none" xmlns="http://www.w3.org/2000/svg">
<g clip-path="url(#clip0_53_134)">
<path d="M40.4628 7.7792L19.9098 2.38139C14.9019 1.06618 9.7545 3.97905 8.41265 8.88746L2.90549 29.0324C1.56365 33.9408 4.53552 38.986 9.54337 40.3012L30.0964 45.699C35.1042 47.0142 40.2517 44.1014 41.5935 39.193L47.1007 19.048C48.4425 14.1396 45.4706 9.0944 40.4628 7.7792Z" fill="#F4F2ED"/>
<path d="M8.91255 31.7277L13.7211 32.9905L16.8501 21.5445L11.3613 14.6909L7.40399 29.1667C7.09846 30.2843 7.77579 31.4292 8.91255 31.7277Z" fill="#4285F4"/>
<path d="M30.2072 37.3204L35.0159 38.5833C36.1561 38.8828 37.3242 38.2189 37.6288 37.1047L41.5862 22.6288L33.3363 25.8744" fill="#34A853"/>
<path d="M35.7294 17.1214L33.3366 25.8742L41.5864 22.6288L42.3228 19.9353C43.0056 17.4375 40.4858 15.2494 38.0395 16.2126" fill="#FBBC04"/>
<path d="M16.8503 21.5445L19.2431 12.7918L25.8297 21.016L35.7294 17.1213L33.3366 25.8741L23.4369 29.769" fill="#EA4335"/>
<path d="M12.0979 11.9974L11.3616 14.6906L16.8504 21.5444L19.2432 12.7917L17.7064 10.8726C16.0757 8.83862 12.7808 9.49957 12.0979 11.9974Z" fill="#C5221F"/>
</g>
<defs>
<clipPath id="clip0_53_134">
<rect width="40" height="39.3113" fill="white" transform="matrix(0.9672 0.254015 -0.263701 0.964604 10.8423 0)"/>
</clipPath>
</defs>
</svg>
