<svg width="44" height="43" viewBox="0 0 44 43" fill="none" xmlns="http://www.w3.org/2000/svg">
<g clip-path="url(#clip0_53_121)">
<path d="M34.4071 2.61654L13.2348 0.800981C8.07603 0.358611 3.52817 4.09895 3.07684 9.15525L1.2245 29.9072C0.773168 34.9635 4.58928 39.421 9.74801 39.8634L30.9203 41.6789C36.0791 42.1213 40.6269 38.381 41.0782 33.3247L42.9306 12.5728C43.3819 7.51646 39.5658 3.05891 34.4071 2.61654Z" fill="url(#paint0_radial_53_121)"/>
<path d="M34.4071 2.61654L13.2348 0.800981C8.07603 0.358611 3.52817 4.09895 3.07684 9.15525L1.2245 29.9072C0.773168 34.9635 4.58928 39.421 9.74801 39.8634L30.9203 41.6789C36.0791 42.1213 40.6269 38.381 41.0782 33.3247L42.9306 12.5728C43.3819 7.51646 39.5658 3.05891 34.4071 2.61654Z" fill="url(#paint1_radial_53_121)"/>
<path d="M23.4409 5.98157C19.2129 5.61902 18.6806 5.59167 17.0135 5.52329C15.3495 5.45563 14.1953 5.61573 13.1718 5.9082C12.1129 6.21009 11.1979 6.65701 10.2569 7.4312C9.31511 8.20517 8.70717 9.01084 8.21877 9.9799C7.74606 10.9172 7.38442 12.004 7.16491 13.6213C6.94537 15.2426 6.87947 15.7613 6.50956 19.9054C6.13965 24.0495 6.11205 24.5696 6.04212 26.2036C5.97341 27.8346 6.13675 28.9659 6.43483 29.969C6.74315 31.0069 7.19912 31.9038 7.989 32.8261C8.77833 33.7491 9.60022 34.3462 10.5887 34.8237C11.5456 35.286 12.6541 35.6401 14.3045 35.8567C15.9585 36.0731 16.4872 36.1367 20.7149 36.4992C24.9433 36.8618 25.4739 36.889 27.141 36.9574C28.805 37.0251 29.9605 36.8651 30.9848 36.5727C32.0432 36.2707 32.9571 35.8225 33.8978 35.0478C34.8396 34.274 35.4473 33.4683 35.9359 32.4993C36.4052 31.5615 36.767 30.4748 36.9898 28.8577C37.2096 27.2366 37.2754 26.7195 37.6453 22.5753C38.0152 18.4312 38.0422 17.9095 38.1129 16.2755C38.18 14.6443 38.0162 13.5131 37.7202 12.5101C37.4107 11.4722 36.9549 10.5753 36.1646 9.65282C35.3745 8.72988 34.555 8.13423 33.5649 7.65709C32.6061 7.19449 31.4972 6.84016 29.8464 6.62373C28.1924 6.40732 27.6653 6.34383 23.436 5.98116L23.4409 5.98157ZM21.7988 8.61159C22.2134 8.64653 22.6759 8.6868 23.1954 8.73135C27.3522 9.0878 27.8434 9.14469 29.4784 9.35854C30.9902 9.55675 31.7918 9.87596 32.322 10.1319C33.0238 10.4707 33.5123 10.8458 34.0092 11.4267C34.5064 12.0075 34.7982 12.545 35.0175 13.2813C35.1826 13.8367 35.3645 14.666 35.3008 16.1596C35.2318 17.7746 35.2049 18.2591 34.8414 22.3314C34.4779 26.4036 34.4185 26.8855 34.2004 28.4875C33.9982 29.9693 33.6725 30.755 33.4114 31.274C33.0658 31.9619 32.6825 32.44 32.09 32.927C31.4975 33.4144 30.9506 33.7005 30.1991 33.9148C29.6322 34.0776 28.7856 34.2549 27.2617 34.1928C25.614 34.1251 25.1197 34.0987 20.9629 33.7423C16.806 33.3858 16.3147 33.3277 14.6802 33.1139C13.1684 32.9151 12.3668 32.5959 11.8362 32.3399C11.1345 32.0009 10.645 31.6259 10.1477 31.0451C9.65054 30.4644 9.35863 29.9281 9.13935 29.1914C8.97419 28.6359 8.79235 27.8066 8.85603 26.3129C8.92504 24.698 8.95322 24.2136 9.31694 20.1387C9.68067 16.0639 9.7385 15.5847 9.95665 13.9825C10.1589 12.5007 10.4846 11.715 10.7457 11.1954C11.0915 10.5075 11.4747 10.0279 12.0674 9.54053C12.6601 9.05322 13.2084 8.76704 13.9597 8.55224C14.5271 8.38949 15.3734 8.21221 16.8974 8.27401C18.3392 8.33353 18.8975 8.36218 21.7992 8.60778L21.7988 8.61159ZM31.2794 11.9775C30.248 11.8891 29.3381 12.6367 29.2479 13.6478C29.1576 14.6587 29.9212 15.5506 30.9526 15.639C31.9839 15.7275 32.8939 14.9791 32.9841 13.9682C33.0744 12.9573 32.3108 12.0654 31.2794 11.9769L31.2794 11.9775ZM22.7783 13.4043C18.3632 13.0258 14.4704 16.2274 14.0841 20.5549C13.6978 24.8825 16.9645 28.6963 21.3795 29.0749C25.7947 29.4535 29.6862 26.2535 30.0725 21.9259C30.4587 17.5986 27.1932 13.7829 22.778 13.4043L22.7783 13.4043ZM22.5328 16.1541C25.3987 16.3999 27.519 18.8762 27.2682 21.6855C27.0175 24.4945 24.4907 26.5726 21.6248 26.3268C18.7589 26.0811 16.6389 23.6045 16.8896 20.7955C17.1403 17.9862 19.6668 15.9084 22.5328 16.1541Z" fill="white"/>
</g>
<defs>
<radialGradient id="paint0_radial_53_121" cx="0" cy="0" r="1" gradientUnits="userSpaceOnUse" gradientTransform="translate(10.7249 42.9788) rotate(-84.8992) scale(38.8677 36.8709)">
<stop stop-color="#FFDD55"/>
<stop offset="0.1" stop-color="#FFDD55"/>
<stop offset="0.5" stop-color="#FF543E"/>
<stop offset="1" stop-color="#C837AB"/>
</radialGradient>
<radialGradient id="paint1_radial_53_121" cx="0" cy="0" r="1" gradientUnits="userSpaceOnUse" gradientTransform="translate(-3.03278 2.24142) rotate(83.5541) scale(17.3757 73.0378)">
<stop stop-color="#3771C8"/>
<stop offset="0.128" stop-color="#3771C8"/>
<stop offset="1" stop-color="#6600FF" stop-opacity="0"/>
</radialGradient>
<clipPath id="clip0_53_121">
<rect width="40" height="39.2177" fill="white" transform="matrix(0.996343 0.0854379 -0.0889075 0.99604 3.89404 0)"/>
</clipPath>
</defs>
</svg>
