<svg width="56" height="55" viewBox="0 0 56 55" fill="none" xmlns="http://www.w3.org/2000/svg">
<g clip-path="url(#clip0_53_145)">
<path d="M17.8833 10.15C8.27016 15.59 4.97648 27.6385 10.5266 37.0606C16.077 46.4835 28.3693 49.7112 37.9823 44.2713C47.5962 38.831 50.8896 26.7835 45.3391 17.3607C39.7894 7.93923 27.4977 4.71063 17.8836 10.1511L17.8833 10.15ZM40.36 30.2395C40.3434 30.9171 39.7676 31.4547 39.0751 31.4365C33.5471 31.3024 28.076 33.6595 22.8163 38.445C22.5727 38.6663 22.2492 38.7838 21.9172 38.7715C21.5852 38.7592 21.2717 38.6181 21.0458 38.3794C20.9337 38.2613 20.8466 38.1227 20.7892 37.9715C20.7319 37.8204 20.7055 37.6596 20.7117 37.4985C20.7178 37.3373 20.7563 37.1789 20.8249 37.0324C20.8935 36.8858 20.991 36.754 21.1117 36.6444C26.8677 31.4073 32.9317 28.8282 39.1387 28.9801C39.8313 28.9984 40.3786 29.5607 40.36 30.2395ZM39.7541 24.3884C39.7297 25.2366 39.0106 25.9071 38.1458 25.8831C31.8067 25.712 24.1937 28.9315 19.6296 33.7096C19.037 34.3282 18.0455 34.3608 17.414 33.7818C16.7834 33.2007 16.7512 32.23 17.3418 31.6108C22.5556 26.1535 30.9508 22.6171 38.2301 22.8128C39.0951 22.8369 39.7791 23.5415 39.7541 24.3884ZM37.0876 19.4476C29.5537 19.3561 20.1211 24.2934 15.7037 28.9179C14.9942 29.6602 13.8042 29.699 13.0471 29.0034C12.2896 28.3075 12.2498 27.1421 12.9597 26.3987C18.0304 21.09 28.4599 15.6595 37.1323 15.7627C38.1728 15.7739 39.0032 16.6099 38.9898 17.627C38.9794 18.6441 38.1246 19.461 37.0884 19.4471L37.0876 19.4476Z" fill="#1ED760"/>
</g>
<defs>
<clipPath id="clip0_53_145">
<rect width="40" height="39.6009" fill="white" transform="matrix(0.870313 -0.492498 0.507539 0.861629 0.477051 20)"/>
</clipPath>
</defs>
</svg>
