<svg width="67" height="52" viewBox="0 0 67 52" fill="none" xmlns="http://www.w3.org/2000/svg">
<g clip-path="url(#clip0_53_142)">
<path d="M59.4938 7.36281C58.9337 6.19306 58.0707 5.18753 56.9908 4.44635C55.9109 3.70517 54.6517 3.2542 53.3387 3.13834C48.53 2.70483 30.0645 5.89615 30.0645 5.89615C30.0645 5.89615 11.6048 9.12474 7.23733 11.1441C6.04389 11.6932 5.01801 12.5391 4.26187 13.5976C3.50573 14.6562 3.0457 15.8904 2.9276 17.1774C2.97725 25.4075 4.62923 37.6758 7.97341 45.007C8.53351 46.1767 9.39648 47.1823 10.4764 47.9235C11.5563 48.6646 12.8155 49.1156 14.1285 49.2315C18.9372 49.665 37.4032 46.4736 37.4032 46.4736C37.4032 46.4736 55.8689 43.2822 60.2361 41.2629C61.4295 40.7139 62.4555 39.868 63.2116 38.8095C63.9678 37.751 64.4279 36.5168 64.5461 35.2298C64.5704 26.9752 62.8324 14.7295 59.4938 7.36281Z" fill="#FF0000"/>
<path d="M29.4024 35.9003L43.1565 24.5564L26.2734 18.5073L29.4024 35.9003Z" fill="white"/>
</g>
<defs>
<clipPath id="clip0_53_142">
<rect width="60" height="41.3999" fill="white" transform="matrix(0.985392 -0.170301 0.177057 0.984201 0.532715 11)"/>
</clipPath>
</defs>
</svg>
